<?xml version="1.0" encoding="UTF-8"?>
<svg version="1.1" xmlns="http://www.w3.org/2000/svg" width="5000" height="1283">
<path d="M0 0 C1650 0 3300 0 5000 0 C5000 423.39 5000 846.78 5000 1283 C3350 1283 1700 1283 0 1283 C0 859.61 0 436.22 0 0 Z " fill="#FFFFFF" transform="translate(0,0)"/>
<path d="M0 0 C2.47425854 -0.00310293 4.94851571 -0.00752015 7.42276985 -0.01312479 C12.81052314 -0.0223105 18.19815691 -0.02222307 23.58590296 -0.01391556 C31.67490275 -0.00150633 39.76382935 -0.00659539 47.85283102 -0.01494466 C61.70362311 -0.02873407 75.55438235 -0.02828592 89.40517745 -0.02016651 C103.51652912 -0.01195408 117.6278591 -0.01034816 131.739212 -0.01664764 C133.08164737 -0.0172407 133.08164737 -0.0172407 134.45120265 -0.01784575 C139.0208011 -0.0198933 143.59039949 -0.02204463 148.15999787 -0.0242305 C181.53610112 -0.03996582 214.91219224 -0.04085205 248.28829783 -0.03425127 C282.12153067 -0.02760355 315.95475425 -0.02746744 349.78798693 -0.03529841 C350.85469072 -0.03554217 351.9213945 -0.03578594 353.02042264 -0.03603709 C362.79597394 -0.03827146 372.57152523 -0.04057095 382.34707649 -0.04294893 C406.86138953 -0.04890297 431.37570273 -0.05379422 455.89001614 -0.05796164 C457.01341131 -0.058153 458.13680649 -0.05834435 459.29424394 -0.0585415 C514.68732616 -0.06787347 570.08040727 -0.06569348 625.47348994 -0.06225306 C626.67428122 -0.0621786 627.87507251 -0.06210415 629.11225141 -0.06202744 C633.97365232 -0.06172561 638.83505323 -0.06142291 643.69645414 -0.06111951 C657.12501863 -0.06028267 670.55358313 -0.05947675 683.98214763 -0.05870992 C685.80071776 -0.0586051 685.80071776 -0.0586051 687.65602668 -0.05849817 C743.81787356 -0.05529334 799.97971949 -0.05843511 856.14156621 -0.06289771 C862.26686812 -0.06338155 868.39217003 -0.06385156 874.51747194 -0.06432184 C884.348783 -0.06507778 894.18009407 -0.06583602 904.01140513 -0.06659876 C905.23051537 -0.06669331 906.44962562 -0.06678786 907.70567859 -0.06688528 C913.87050691 -0.06736399 920.03533522 -0.06784543 926.20016353 -0.06833139 C983.7348456 -0.07286592 1041.26952769 -0.07636425 1098.80420989 -0.07883459 C1100.05782678 -0.0788887 1101.31144367 -0.07894281 1102.60304895 -0.07899855 C1183.80176654 -0.08248143 1265.0004833 -0.08112443 1346.19920081 -0.07644469 C1348.81869025 -0.0762948 1351.43817969 -0.07614499 1354.05766913 -0.07599527 C1382.97674763 -0.07433867 1411.89582612 -0.07258702 1440.81490461 -0.07080226 C1442.77298106 -0.07068151 1442.77298106 -0.07068151 1444.77061462 -0.07055832 C1448.72797492 -0.07031426 1452.68533522 -0.07007007 1456.64269552 -0.06982581 C1458.60236084 -0.06970486 1458.60236084 -0.06970486 1460.60161535 -0.06958147 C1467.20279037 -0.06917379 1473.80396539 -0.06876469 1480.4051404 -0.06835312 C1611.72494851 -0.06017376 1743.04475195 -0.05830295 1977.55856691 -0.08879443 C2020.96963146 -0.09493364 2064.38069602 -0.10101602 2107.79176062 -0.1067639 C2109.08773872 -0.10693591 2110.38371682 -0.10710793 2111.71896699 -0.10728516 C2192.87204566 -0.11804371 2274.02512341 -0.12393081 2355.17820281 -0.12432104 C2356.43142577 -0.12432756 2357.68464873 -0.12433407 2358.97584815 -0.12434079 C2415.24655903 -0.12462228 2471.51726984 -0.12363124 2527.78798068 -0.12145072 C2547.46866945 -0.12069123 2567.14935822 -0.12001726 2586.83004699 -0.11937057 C2591.7262714 -0.11920934 2596.6224958 -0.11904123 2601.51872021 -0.11886756 C2657.68170372 -0.1168925 2713.84468509 -0.11770958 2770.00766796 -0.12717229 C2771.21916341 -0.12737591 2772.43065887 -0.12757952 2773.67886631 -0.12778931 C2793.16768572 -0.13107693 2812.65650509 -0.13457109 2832.14532446 -0.13807055 C2887.46048597 -0.1479881 2942.7756442 -0.15564684 2998.09080654 -0.14890403 C2999.77389473 -0.14869989 2999.77389473 -0.14869989 3001.49098471 -0.14849164 C3025.96887534 -0.14547818 3050.44676564 -0.14132337 3074.92465588 -0.13604731 C3084.68663789 -0.13395916 3094.44861993 -0.13201435 3104.21060199 -0.13011271 C3105.27547574 -0.12990122 3106.34034949 -0.12968974 3107.43749215 -0.12947185 C3141.2270569 -0.12282838 3175.01660463 -0.12845811 3208.80616724 -0.14116407 C3242.07165519 -0.15361983 3275.33711798 -0.15394003 3308.60260452 -0.1365404 C3313.15757682 -0.13415945 3317.71254917 -0.13191771 3322.26752158 -0.12975926 C3323.15925526 -0.12933127 3324.05098893 -0.12890327 3324.96974484 -0.12846231 C3339.03503853 -0.12207513 3353.10029211 -0.12902942 3367.16558023 -0.14168257 C3380.92409158 -0.15378656 3394.68253956 -0.15171424 3408.44104605 -0.13441508 C3416.4671423 -0.1247472 3424.49305654 -0.12588669 3432.51914061 -0.14337741 C3438.46738167 -0.15511738 3444.41547257 -0.14594083 3450.36370426 -0.1287157 C3452.74619281 -0.12501915 3455.12870373 -0.12797116 3457.5111718 -0.13851983 C3488.67816726 -0.26707236 3515.37288096 7.57479884 3538.2862398 29.90063566 C3553.90135611 46.30974093 3565.80835268 69.30295325 3565.82519722 92.31465691 C3565.82846941 93.4888968 3565.83174161 94.6631367 3565.83511296 95.87295961 C3565.83362934 97.15638512 3565.83214571 98.43981063 3565.83061713 99.76212782 C3565.83257108 101.1501872 3565.83496032 102.53824602 3565.8377451 103.92630398 C3565.84414286 107.75245695 3565.8443069 111.57858892 3565.84346769 115.40474622 C3565.84363724 119.56305546 3565.8495439 123.7213572 3565.85470855 127.87966269 C3565.86403639 136.13266179 3565.86795691 144.38565552 3565.87022752 152.63865923 C3565.87318914 162.52221364 3565.88188637 172.40576092 3565.8906418 182.28931159 C3565.91148965 206.1805847 3565.92195682 230.07185904 3565.93077141 253.96313912 C3565.93497773 265.26581866 3565.94019976 276.56849767 3565.94545594 287.87117676 C3565.96334708 326.56194279 3565.97834276 365.25270897 3565.98577613 403.94347852 C3565.98625088 406.37269984 3565.98672677 408.80192116 3565.98720379 411.23114248 C3565.98755835 413.03815672 3565.98755835 413.03815672 3565.98792008 414.88167631 C3565.98912128 420.98516407 3565.99033673 427.08865182 3565.99156207 433.19213957 C3565.99180222 434.40339569 3565.99204237 435.61465182 3565.9922898 436.86261268 C3566.00018158 476.12868389 3566.02361044 515.39472488 3566.05611801 554.6607829 C3566.09042414 596.17513459 3566.11012803 637.68946861 3566.11342037 679.20383471 C3566.1138379 683.7622456 3566.11431747 688.32065648 3566.11484355 692.87906736 C3566.11502833 694.56268045 3566.11502833 694.56268045 3566.11521686 696.28030592 C3566.11754798 714.33565622 3566.13320318 732.39097141 3566.15368539 750.44630921 C3566.17395219 768.59998138 3566.17941665 786.75361142 3566.16991476 804.90729281 C3566.16470303 815.68813645 3566.17056182 826.46883971 3566.19244943 837.24966311 C3566.20597734 844.45862887 3566.20486293 851.66749823 3566.19204747 858.876465 C3566.1851641 862.97910767 3566.18443541 867.08148237 3566.20160756 871.1841009 C3566.33748649 905.84878343 3560.08554366 933.0936512 3535.57139605 958.93969816 C3529.55124365 964.83495114 3522.97567671 969.17887715 3515.69639605 973.37719816 C3514.23073199 974.22604582 3514.23073199 974.22604582 3512.73545855 975.09204191 C3507.12382603 978.11309887 3501.40116001 980.28181259 3495.32139605 982.12719816 C3494.35109454 982.425455 3494.35109454 982.425455 3493.36119097 982.72973722 C3479.0204149 986.81060236 3464.57613615 986.65560554 3449.81016558 986.60424894 C3447.52241539 986.60368389 3445.23466484 986.60400321 3442.94691485 986.60513395 C3436.77435478 986.6057048 3430.60187337 986.59399396 3424.42933148 986.57998604 C3417.96447325 986.5674339 3411.49961297 986.56630465 3405.03474444 986.56393522 C3394.19619755 986.55843699 3383.35768272 986.54596769 3372.51914996 986.52807707 C3361.36225036 986.50968024 3350.20535857 986.49554242 3339.04844683 986.48706144 C3338.01448957 986.48627327 3338.01448957 986.48627327 3336.95964427 986.48546918 C3333.50112867 986.48285884 3330.04261302 986.48033149 3326.58409733 986.47784537 C3297.95484425 986.45715844 3269.32562128 986.42182294 3240.69639605 986.37719816 C3242.89038943 982.62198143 3245.24404665 979.50743083 3248.13389605 976.25219816 C3283.03939009 935.47158645 3292.38591206 883.93950954 3292.20463568 831.96150631 C3292.19334531 827.43796453 3292.20552684 822.9144698 3292.21447772 818.39093107 C3292.22829014 809.5696075 3292.22094445 800.74842871 3292.20580214 791.92711225 C3292.18879867 781.62297087 3292.19217008 771.31886412 3292.19589622 761.01471302 C3292.20175251 742.61435357 3292.18768975 724.21406291 3292.16294879 705.8137216 C3292.13902064 688.01551831 3292.13195289 670.21740683 3292.14244097 652.41919035 C3292.15388365 632.96659922 3292.15574008 613.51405037 3292.14134288 594.06145972 C3292.13981727 591.98234155 3292.13829691 589.90322338 3292.13678187 587.8241052 C3292.13602406 586.80152901 3292.13526624 585.77895282 3292.13448546 584.72538947 C3292.12976956 577.5659207 3292.1315747 570.406471 3292.13584727 563.24700254 C3292.14080446 554.50909026 3292.13465447 545.77126426 3292.11495297 537.0333716 C3292.10516983 532.58685822 3292.09987711 528.14047542 3292.10784549 523.69395536 C3292.14364214 501.3748369 3291.79935451 479.25944575 3286.13389605 457.50219816 C3285.88559039 456.53225919 3285.63728472 455.56232023 3285.38145465 454.56298918 C3275.97134722 419.64830359 3257.235694 390.49967662 3232.69639605 364.37719816 C3232.11502887 363.74169035 3231.53366168 363.10618253 3230.9346773 362.45141691 C3225.17331196 356.37078195 3218.35741392 351.41834955 3211.69639605 346.37719816 C3211.13001422 345.94471769 3210.56363238 345.51223722 3209.98008746 345.06665128 C3187.61871909 328.09789587 3161.65504565 316.79859334 3134.32139605 310.68969816 C3133.42517535 310.48707365 3132.52895465 310.28444914 3131.60557574 310.07568449 C3116.80316257 306.92010068 3102.15025739 306.08108282 3087.06756419 306.12272257 C3085.2418398 306.12032712 3083.41611638 306.11705836 3081.59039491 306.11300597 C3076.60027998 306.10443906 3071.61024088 306.10819019 3066.6201249 306.11406169 C3061.18088435 306.11824995 3055.7416572 306.1108199 3050.30241996 306.10490918 C3040.77806709 306.09616133 3031.25373572 306.09483004 3021.72937983 306.09841245 C3007.56587525 306.10372571 2993.40239144 306.09761786 2979.23888912 306.08932952 C2953.20488014 306.07429398 2927.17087954 306.07223905 2901.1368671 306.0746499 C2897.45107803 306.07498837 2893.76528897 306.07531046 2890.0794999 306.07561558 C2889.34735328 306.07567663 2888.61520666 306.07573767 2887.86087377 306.07580057 C2871.61777464 306.07707379 2855.37467682 306.07446865 2839.13157808 306.07108952 C2835.41994249 306.07031877 2831.70830689 306.06957403 2827.9966713 306.0688245 C2826.50697495 306.06852281 2825.0172786 306.06822093 2823.52758226 306.06791886 C2822.41993693 306.06769434 2822.41993693 306.06769434 2821.28991493 306.06746529 C2819.79623865 306.06716175 2818.30256236 306.06685707 2816.80888607 306.06655124 C2774.43854867 306.05788079 2732.06821243 306.05323242 2689.69787425 306.05749887 C2688.52157539 306.05761596 2688.52157539 306.05761596 2687.32151291 306.05773541 C2678.57736324 306.05860817 2669.83321359 306.05953743 2661.08906393 306.06048604 C2660.2996346 306.06057155 2659.51020526 306.06065706 2658.69685383 306.06074516 C2653.90809831 306.06126395 2653.90809831 306.06126395 2649.11934279 306.06178739 C2598.63297574 306.06732226 2548.14662698 306.05978253 2497.66026324 306.04101652 C2484.93970193 306.03629407 2472.21914062 306.03161345 2459.4985792 306.02717966 C2458.71525794 306.02690634 2457.93193669 306.02663301 2457.12487842 306.02635141 C2432.97084653 306.0179762 2408.81681617 306.01330008 2384.66278285 306.01247209 C2383.90411771 306.01244573 2383.14545258 306.01241936 2382.36379759 306.01239219 C2365.70693228 306.01185134 2349.0500671 306.01222404 2332.39320184 306.01343191 C2326.43267562 306.01385751 2320.4721494 306.01422264 2314.51162318 306.01456135 C2313.02887825 306.01464665 2311.54613331 306.01473559 2310.06338838 306.01482817 C2286.46899625 306.016275 2262.87461657 306.00916331 2239.28022743 305.99782421 C2214.84571601 305.98615742 2190.41122686 305.98562966 2165.97671531 305.99766763 C2151.89977028 306.00429266 2137.82288373 306.00267334 2123.74594339 305.98907912 C2114.33389145 305.98082423 2104.92188325 305.98354571 2095.50983485 305.99505439 C2090.15323264 306.00130043 2084.79674442 306.00293844 2079.44014888 305.99119105 C2017.12070872 305.86396568 1962.8649015 319.16267473 1916.69639605 363.37719816 C1916.19752887 363.8488339 1915.69866168 364.32046964 1915.1846773 364.80639738 C1897.44399063 381.64066722 1883.67835313 402.07005313 1873.69639605 424.37719816 C1873.36156207 425.12517668 1873.02672808 425.87315519 1872.68174762 426.64379972 C1865.55381359 442.86068623 1860.77321274 459.71603661 1857.88389605 477.18969816 C1857.71603595 478.18948698 1857.71603595 478.18948698 1857.54478472 479.20947355 C1854.79285193 497.79106934 1855.54528284 516.85818037 1855.55101234 535.59074754 C1855.55121859 539.80774007 1855.54567645 544.02472601 1855.54095477 548.24171537 C1855.5326956 556.48169069 1855.52990208 564.72165886 1855.52934239 572.96163797 C1855.52886496 579.66912879 1855.52679893 586.37661727 1855.52364177 593.08410734 C1855.51484799 612.15885203 1855.51022037 631.23359113 1855.51097224 650.30833787 C1855.5110122 651.33379126 1855.51105215 652.35924464 1855.51109332 653.41577238 C1855.5111342 654.44249784 1855.51117508 655.46922329 1855.5112172 656.52706164 C1855.51162327 673.14996818 1855.50206014 689.77285203 1855.48795495 706.39575201 C1855.47354006 723.52065694 1855.46668757 740.64555084 1855.46754873 757.77046198 C1855.46787894 767.36198919 1855.46520944 776.95349262 1855.45437068 786.54501432 C1855.44519804 794.71357243 1855.44314525 802.88209596 1855.4498801 811.05065703 C1855.45311162 815.20582409 1855.45332653 819.36092508 1855.44452685 823.51608557 C1855.33009274 881.39668648 1864.6548945 932.21586654 1901.69639605 978.37719816 C1903.67639605 981.01719816 1905.65639605 983.65719816 1907.69639605 986.37719816 C1803.74639605 986.37719816 1699.79639605 986.37719816 1592.69639605 986.37719816 C1594.5815886 982.60681307 1596.4460696 980.21103681 1599.19639605 977.06469816 C1629.50178125 941.42494669 1643.86861347 895.43524778 1643.83683795 849.13130277 C1643.83942667 847.6086121 1643.84244122 846.0859221 1643.84584135 844.56323302 C1643.85385551 840.40443327 1643.85569778 836.24565082 1643.85643882 832.08684427 C1643.85829924 827.59096272 1643.8658516 823.09508995 1643.87257403 818.59921354 C1643.88611941 808.77831997 1643.8921765 798.9574305 1643.89658469 789.13652915 C1643.89935427 782.99386806 1643.90359297 776.85120852 1643.90808886 770.70854849 C1643.92027794 753.67238839 1643.93057708 736.63622953 1643.93396395 719.60006517 C1643.9342933 717.96647524 1643.9342933 717.96647524 1643.93462931 716.2998835 C1643.93484758 715.20833792 1643.93506586 714.11679234 1643.93529075 712.99216962 C1643.93573421 710.78058733 1643.93618077 708.56900505 1643.93663043 706.35742277 C1643.93685186 705.26042066 1643.93707329 704.16341854 1643.93730143 703.03317394 C1643.94124405 685.28328637 1643.95868334 667.53343998 1643.98198995 649.7835683 C1644.00577294 631.52210215 1644.018169 613.26065659 1644.01933187 594.99917471 C1644.02024488 584.76148998 1644.02590206 574.52385888 1644.04415148 564.28618902 C1644.05964675 555.56330416 1644.06461799 546.84048953 1644.05641338 538.1175935 C1644.05253957 533.6771316 1644.0532737 529.23681066 1644.06747073 524.79636663 C1644.25329821 463.02014915 1628.54305271 408.91702644 1584.35020465 364.03930753 C1583.80444781 363.49081144 1583.25869097 362.94231535 1582.69639605 362.37719816 C1582.20349078 361.88026457 1581.71058551 361.38333097 1581.20274371 360.87133878 C1562.03637726 341.81667211 1537.8461539 327.87591786 1512.69639605 318.37719816 C1511.47178668 317.90797941 1510.2471773 317.43876066 1508.98545855 316.95532316 C1501.55117268 314.29670437 1494.0195334 312.41018243 1486.32139605 310.68969816 C1485.42517535 310.48707365 1484.52895465 310.28444914 1483.60557574 310.07568449 C1468.80316257 306.92010068 1454.15025739 306.08108282 1439.06756419 306.12272257 C1437.2418398 306.12032712 1435.41611638 306.11705836 1433.59039491 306.11300597 C1428.60027998 306.10443906 1423.61024088 306.10819019 1418.6201249 306.11406169 C1413.18088435 306.11824995 1407.7416572 306.1108199 1402.30241996 306.10490918 C1392.77806709 306.09616133 1383.25373572 306.09483004 1373.72937983 306.09841245 C1359.56587525 306.10372571 1345.40239144 306.09761786 1331.23888912 306.08932952 C1305.20488014 306.07429398 1279.17087954 306.07223905 1253.1368671 306.0746499 C1249.45107803 306.07498837 1245.76528897 306.07531046 1242.0794999 306.07561558 C1241.34735328 306.07567663 1240.61520666 306.07573767 1239.86087377 306.07580057 C1223.61777464 306.07707379 1207.37467682 306.07446865 1191.13157808 306.07108952 C1187.41994249 306.07031877 1183.70830689 306.06957403 1179.9966713 306.0688245 C1178.50697495 306.06852281 1177.0172786 306.06822093 1175.52758226 306.06791886 C1174.41993693 306.06769434 1174.41993693 306.06769434 1173.28991493 306.06746529 C1171.79623865 306.06716175 1170.30256236 306.06685707 1168.80888607 306.06655124 C1126.43854867 306.05788079 1084.06821243 306.05323242 1041.69787425 306.05749887 C1040.52157539 306.05761596 1040.52157539 306.05761596 1039.32151291 306.05773541 C1030.57736324 306.05860817 1021.83321359 306.05953743 1013.08906393 306.06048604 C1012.2996346 306.06057155 1011.51020526 306.06065706 1010.69685383 306.06074516 C1005.90809831 306.06126395 1005.90809831 306.06126395 1001.11934279 306.06178739 C950.63297574 306.06732226 900.14662698 306.05978253 849.66026324 306.04101652 C836.93970193 306.03629407 824.21914062 306.03161345 811.4985792 306.02717966 C810.32359731 306.02676968 810.32359731 306.02676968 809.12487842 306.02635141 C784.97084653 306.0179762 760.81681617 306.01330008 736.66278285 306.01247209 C735.90411771 306.01244573 735.14545258 306.01241936 734.36379759 306.01239219 C717.70693228 306.01185134 701.0500671 306.01222404 684.39320184 306.01343191 C678.43267562 306.01385751 672.4721494 306.01422264 666.51162318 306.01456135 C665.02887825 306.01464665 663.54613331 306.01473559 662.06338838 306.01482817 C638.46899625 306.016275 614.87461657 306.00916331 591.28022743 305.99782421 C566.84571601 305.98615742 542.41122686 305.98562966 517.97671531 305.99766763 C503.89977028 306.00429266 489.82288373 306.00267334 475.74594339 305.98907912 C466.33389145 305.98082423 456.92188325 305.98354571 447.50983485 305.99505439 C442.15323264 306.00130043 436.79674442 306.00293844 431.44014888 305.99119105 C378.50152717 305.88309998 329.6762507 313.72513359 286.69639605 347.37719816 C286.1362984 347.81177336 285.57620074 348.24634855 284.99913043 348.69409269 C245.00783354 380.10043153 218.93768685 424.68414192 210.38389605 474.68969816 C210.22437457 475.61878996 210.06485308 476.54788175 209.90049762 477.50512785 C207.80293274 490.77118388 207.54689911 504.18149276 207.56268328 517.58570951 C207.56080885 519.04330639 207.55850567 520.50090276 207.55581796 521.95849836 C207.54977158 525.91410763 207.54982497 529.86969555 207.55101234 533.82530838 C207.55121818 538.11112728 207.54568023 542.39693964 207.54095477 546.68275541 C207.53268707 555.06103151 207.52990169 563.43930057 207.52934239 571.81758041 C207.52886538 578.63574743 207.52680142 585.45391216 207.52364177 592.27207845 C207.51484574 611.65052406 207.51022073 631.02896415 207.51097224 650.40741176 C207.5110122 651.4497191 207.51105215 652.49202645 207.51109332 653.56591886 C207.5111342 654.60951533 207.51117508 655.65311179 207.5112172 656.72833239 C207.51162336 673.62821999 207.50205864 690.52808528 207.48795495 707.42796642 C207.47355025 724.82738654 207.46668702 742.2267958 207.46754873 759.62622201 C207.46787929 769.37585573 207.4651944 779.12546605 207.45437068 788.87509435 C207.44521159 797.17773451 207.44313441 805.48034067 207.4498801 813.78298373 C207.45311827 818.0086491 207.45330146 822.23424946 207.44452685 826.45990843 C207.33045268 885.2082216 218.45917417 936.4044198 257.01670855 982.30297941 C258.69639605 984.37719816 258.69639605 984.37719816 259.69639605 986.37719816 C224.60426596 986.44600001 189.51214962 986.49879564 154.41996617 986.53039415 C150.26853839 986.53414586 146.11711074 986.53802887 141.96568316 986.54199308 C140.72607265 986.54317348 140.72607265 986.54317348 139.4614195 986.54437772 C126.11439083 986.55739962 112.76740128 986.58103557 99.42039575 986.60865655 C85.70534594 986.63680056 71.99031649 986.65339335 58.27523899 986.65946364 C49.82553655 986.66356152 41.37594472 986.67646143 32.92627636 986.70094756 C27.11674562 986.71691607 21.30727131 986.72157365 15.49772026 986.71770229 C12.15558354 986.71579782 8.81379223 986.7202165 5.47166461 986.73481458 C-12.26451494 986.80843171 -30.43507257 986.87431903 -47.17860395 980.18969816 C-47.95905072 979.88926603 -48.7394975 979.5888339 -49.54359418 979.27929777 C-74.01807013 969.49303216 -93.5148199 949.89378199 -103.99110395 925.84594816 C-108.35433056 914.31456354 -111.46437464 902.99737573 -111.43782502 890.58517832 C-111.44135337 889.4490975 -111.44135337 889.4490975 -111.44495299 888.29006556 C-111.45160276 885.75559317 -111.45118599 883.22117253 -111.45077497 880.68669218 C-111.45407611 878.84969271 -111.4578022 877.01269396 -111.46191645 875.17569613 C-111.47191624 870.12975804 -111.47564999 865.08383184 -111.47830576 860.03788525 C-111.48221484 854.59452691 -111.4917928 849.15117794 -111.50051862 843.7078256 C-111.52026655 830.56260013 -111.53034738 817.41737391 -111.53924641 804.27213731 C-111.54363228 798.0776223 -111.54899834 791.88310814 -111.55423528 785.6885938 C-111.57124632 765.08913406 -111.58573951 744.48967483 -111.59298402 723.89020914 C-111.59489383 718.54643529 -111.59681251 713.20266144 -111.59876996 707.85888761 C-111.59901011 707.1950268 -111.59925026 706.53116598 -111.59949769 705.84718817 C-111.60738473 684.33945028 -111.6308048 662.83176764 -111.66332591 641.32405386 C-111.69767756 618.5639777 -111.71733903 595.80393233 -111.72062826 573.04382968 C-111.72279058 560.6455046 -111.73149848 548.24726073 -111.75708944 535.84895986 C-111.77883827 525.28785752 -111.78682629 514.7268561 -111.77712265 504.1657339 C-111.77259003 498.78224302 -111.77440369 493.3989602 -111.7938841 488.0154981 C-111.81160295 483.07593863 -111.8104478 478.13673767 -111.79498681 473.19717393 C-111.7926239 471.42116178 -111.7968649 469.64512423 -111.80881546 467.86915072 C-111.92357865 449.66992001 -108.51475118 433.65715422 -100.30360395 417.37719816 C-99.78024457 416.33047941 -99.2568852 415.28376066 -98.71766645 414.20532316 C-85.89370026 390.55918064 -63.77711455 375.01083001 -38.3778227 367.34985441 C-29.26404024 365.02294917 -20.2285161 364.07892316 -10.84364301 364.0583505 C-9.76899793 364.04830488 -8.69435285 364.03825926 -7.58714277 364.02790922 C-4.0811763 363.9973404 -0.57528522 363.9801159 2.93077105 363.96313566 C5.37985387 363.94440282 7.82893037 363.92482786 10.27800006 363.90445036 C16.68935933 363.85334677 23.10073948 363.81360502 29.51219195 363.77630705 C37.22339462 363.72905263 44.93449548 363.66754888 52.6456148 363.60846037 C64.32916696 363.52051392 76.01270223 363.45055909 87.69639605 363.37719816 C87.69639605 344.56719816 87.69639605 325.75719816 87.69639605 306.37719816 C80.09737262 306.33981535 72.49834918 306.30243253 64.6690523 306.26391691 C59.82462956 306.23360348 54.98024207 306.20243347 50.13584918 306.16821378 C42.46440025 306.11410488 34.79302103 306.06298734 27.12144488 306.03076261 C20.92915679 306.00455189 14.73710586 305.96402651 8.54496592 305.9140119 C6.19499643 305.89746247 3.84498603 305.88587463 1.49496669 305.87958425 C-32.00328182 305.78093757 -59.19176289 298.73938003 -83.86610395 275.18969816 C-99.60510246 259.02951517 -111.34611406 235.75456653 -111.45077497 212.80352873 C-111.45793027 211.71903944 -111.46508558 210.63455015 -111.47245771 209.51719755 C-111.47514661 208.34210127 -111.47783551 207.16700498 -111.4806059 205.95629972 C-111.4871771 204.70661909 -111.4937483 203.45693846 -111.50051862 202.16938871 C-111.52021806 198.03553103 -111.53192045 193.90171214 -111.5418852 189.76782316 C-111.54593748 188.33621033 -111.55005454 186.90459767 -111.55423528 185.47298521 C-111.57327675 178.73683595 -111.58750383 172.00069751 -111.59584725 165.26452655 C-111.60558305 157.53496735 -111.63181043 149.8056973 -111.67234814 142.07623976 C-111.70272512 136.07418639 -111.71733677 130.0722148 -111.72062826 124.07008618 C-111.72295642 120.499131 -111.73161787 116.92848494 -111.75708944 113.3576135 C-111.88015354 95.17384894 -111.56244879 77.64393231 -104.17860395 60.68969816 C-103.88566449 60.00238615 -103.59272504 59.31507414 -103.29090863 58.60693449 C-92.49255174 34.37179621 -72.15351269 15.69844715 -47.49110395 6.12719816 C-31.83988109 0.15524174 -16.53848401 -0.05323323 0 0 Z " fill="#000000" transform="translate(749.3036039471626,147.62280184030533)"/>
<path d="M0 0 C1650 0 3300 0 5000 0 C5000 423.39 5000 846.78 5000 1283 C3350 1283 1700 1283 0 1283 C0 859.61 0 436.22 0 0 Z M439.5625 85.625 C438.43416748 85.88297363 437.30583496 86.14094727 436.14331055 86.40673828 C419.91364722 90.27610734 404.46138363 96.07180962 389.79541016 104.02636719 C388.06451948 104.96501174 386.31956624 105.87758114 384.57421875 106.7890625 C367.9380314 115.80752623 353.40066411 127.72733636 340 141 C339.09544067 141.88800293 339.09544067 141.88800293 338.17260742 142.79394531 C323.80769113 156.99238396 312.27611522 174.11822145 303 192 C302.39671875 193.15242188 301.7934375 194.30484375 301.171875 195.4921875 C292.86988688 212.28314546 287.31269826 230.59385487 284 249 C283.8652124 249.73444839 283.7304248 250.46889679 283.59155273 251.2256012 C279.48676293 274.77597647 280.53471838 298.90985106 280.49468994 322.72125244 C280.48307621 328.91783523 280.4593222 335.11415052 280.41999817 341.31062126 C280.40664052 344.17030255 280.41055462 347.02959851 280.41540527 349.88929749 C280.33765342 376.0027301 272.84964501 400.47320714 255 420 C254.25234375 420.84046875 253.5046875 421.6809375 252.734375 422.546875 C236.19854704 440.17779091 211.69719989 451.09054636 187.55404854 452.1025238 C184.76696595 452.15482241 181.98115226 452.1775453 179.19360352 452.18945312 C178.14065598 452.19774643 177.08770844 452.20603973 176.00285339 452.21458435 C173.7297721 452.23190648 171.45667373 452.24709422 169.18356514 452.26036072 C165.59107543 452.28147232 161.99867253 452.30848309 158.40623474 452.33703613 C149.49321851 452.40668959 140.58014122 452.46643008 131.66705322 452.52606201 C124.11767136 452.57689761 116.56833882 452.63165692 109.0190258 452.69187927 C105.47083352 452.71852898 101.92263675 452.73928941 98.37440491 452.7598877 C96.21647924 452.77647934 94.0585557 452.79335016 91.90063477 452.81054688 C90.41006058 452.8168235 90.41006058 452.8168235 88.88937378 452.82322693 C87.99083176 452.83157059 87.09228973 452.83991425 86.16651917 452.84851074 C85.38140237 452.85366447 84.59628557 452.85881821 83.78737736 452.86412811 C81.97622801 452.80661376 81.97622801 452.80661376 81 454 C80.90106222 455.77446009 80.87200908 457.55286251 80.87060547 459.33007812 C80.86745331 460.46795776 80.86430115 461.6058374 80.86105347 462.77819824 C80.8630777 464.01670532 80.86510193 465.2552124 80.8671875 466.53125 C80.86623077 467.79263794 80.86527405 469.05402588 80.86428833 470.3536377 C80.86360625 473.02697138 80.86496471 475.70021437 80.86962891 478.37353516 C80.87532619 481.80706691 80.87204699 485.2405205 80.86605644 488.67404938 C80.86158238 491.93895243 80.86471117 495.20384593 80.8671875 498.46875 C80.86516327 499.70725708 80.86313904 500.94576416 80.86105347 502.22180176 C80.86420563 503.3596814 80.86735779 504.49756104 80.87060547 505.66992188 C80.87140106 506.67728394 80.87219666 507.684646 80.87301636 508.72253418 C80.74430276 510.96651794 80.74430276 510.96651794 82 512 C83.39330242 512.10105787 84.79165868 512.13350806 86.18861389 512.13803101 C87.54432747 512.14621101 87.54432747 512.14621101 88.9274292 512.15455627 C89.92727844 512.1555986 90.92712769 512.15664093 91.95727539 512.15771484 C93.00461349 512.16279556 94.0519516 512.16787628 95.13102722 512.17311096 C97.41675531 512.18384615 99.70249412 512.19245386 101.98823738 512.19923019 C105.61790077 512.21100316 109.2474443 512.23045818 112.87705994 512.25234985 C123.20160863 512.31397554 133.52614929 512.36777331 143.85083008 512.40136719 C150.16095844 512.42245324 156.47087531 512.45788186 162.78088188 512.50212479 C165.17633997 512.51619198 167.57183557 512.524986 169.96733284 512.52817917 C199.17902398 512.57118963 224.08272692 517.86430479 247 537 C247.81597656 537.62261719 248.63195312 538.24523437 249.47265625 538.88671875 C266.92252173 553.4777191 277.25049021 577.82969803 280 600 C280.08857744 602.38508306 280.13000537 604.77221977 280.13307858 607.15894508 C280.1353216 607.84789856 280.13756463 608.53685203 280.13987562 609.24668288 C280.14617738 611.54839304 280.14545348 613.85004604 280.14476013 616.15176392 C280.14789598 617.82163336 280.15147127 619.49150203 280.15544754 621.16136968 C280.16512797 625.74545309 280.16869319 630.32952404 280.17129052 634.91361618 C280.17519016 639.86009565 280.1848276 644.80656418 280.19384766 649.7530365 C280.20878067 658.32634889 280.22032829 666.89966042 280.22979546 675.4729805 C280.24368602 687.89142208 280.26487786 700.30984343 280.28822399 712.72827046 C280.32614279 732.90673281 280.36110257 753.08519883 280.39282227 773.26367188 C280.39472276 774.47138506 280.39662325 775.67909824 280.39858133 776.92340879 C280.425375 794.03702248 280.4492589 811.15063901 280.47196633 828.26425855 C280.47356363 829.46772706 280.47516094 830.67119556 280.47680664 831.91113281 C280.47840011 833.11312748 280.47999357 834.31512215 280.48163532 835.5535409 C280.5084608 855.63984918 280.54288647 875.72613603 280.58346039 895.8124212 C280.60815587 908.18797259 280.62652685 920.563501 280.636616 932.93907307 C280.64404248 941.43412201 280.65862188 949.92914006 280.67868023 958.42416848 C280.69000045 963.31582415 280.69821033 968.20743017 280.69767189 973.09910011 C280.52075039 1006.67684943 280.52075039 1006.67684943 285.125 1039.875 C285.33745361 1040.86346924 285.54990723 1041.85193848 285.76879883 1042.87036133 C293.36749146 1076.48211608 309.51683009 1107.36117603 332.84765625 1132.66015625 C334.96716614 1134.96430584 337.01435342 1137.31995434 339.0625 1139.6875 C342.77290614 1143.84721314 346.69895036 1147.46203982 351 1151 C351.74733398 1151.63180176 351.74733398 1151.63180176 352.50976562 1152.27636719 C380.53749288 1175.94020036 414.62800664 1192.33855304 451 1198 C452.03207247 1198.16690863 453.06414494 1198.33381726 454.12749233 1198.50578372 C468.16701382 1200.4724148 482.23065297 1200.28180169 496.37763026 1200.25285122 C500.27056937 1200.24714379 504.16349457 1200.25319584 508.05643287 1200.25767009 C514.90417084 1200.26394334 521.7518764 1200.26281691 528.59961416 1200.25682249 C538.88062126 1200.24786516 549.16160347 1200.25056456 559.44261214 1200.25545356 C577.04587763 1200.26348666 594.64913101 1200.26201728 612.25239658 1200.25544515 C630.18862265 1200.24878933 648.1248414 1200.24654438 666.06106853 1200.24958507 C667.19827143 1200.24977515 668.33547432 1200.24996522 669.50713791 1200.25016106 C675.31354209 1200.25115107 681.11994625 1200.25221091 686.92635041 1200.25329436 C729.34385772 1200.26105763 771.76136016 1200.25894462 814.17886734 1200.2518692 C857.17863163 1200.24472783 900.17839296 1200.24194547 943.17815781 1200.24450874 C945.21146117 1200.24462695 945.21146117 1200.24462695 947.28584138 1200.24474754 C959.70821265 1200.24547082 972.13058391 1200.24624084 984.55295518 1200.24706676 C1015.70468044 1200.24913418 1046.85640571 1200.25052261 1078.00813103 1200.2514559 C1079.43569777 1200.25149906 1080.86326452 1200.25154221 1082.33409086 1200.25158667 C1152.72883113 1200.25365198 1223.12357059 1200.24814627 1293.51831055 1200.24202538 C1318.30266316 1200.2398741 1343.08701578 1200.23774238 1367.87136841 1200.23571944 C1369.41202882 1200.23559351 1370.95268923 1200.23546759 1372.54003632 1200.23533784 C1443.89873275 1200.2295406 1515.257429 1200.22853594 1586.61612563 1200.22868393 C1591.28266541 1200.22869301 1595.94920519 1200.22869942 1600.61574497 1200.22870489 C1628.75492608 1200.2287381 1656.89410718 1200.22880688 1685.03328829 1200.22892199 C1754.98835837 1200.22920249 1824.94342845 1200.22881294 1894.89849854 1200.22793293 C1897.28738398 1200.22790328 1897.28738398 1200.22790328 1899.72452974 1200.22787304 C2002.87834471 1200.22658418 2106.03215934 1200.22243543 2209.18597412 1200.21607494 C2210.83298214 1200.21597354 2212.47999016 1200.21587213 2214.17690751 1200.21576765 C2267.66811934 1200.21247112 2321.15933115 1200.20898472 2374.65054296 1200.20548091 C2426.77797427 1200.20206667 2478.90540558 1200.1987225 2531.03283691 1200.19561768 C2532.70119858 1200.19551827 2534.36956024 1200.19541886 2536.08847831 1200.19531644 C2694.5368357 1200.18590202 2852.98519286 1200.18477235 3011.43355048 1200.1852866 C3019.82176792 1200.18531348 3028.20998536 1200.18533837 3036.59820279 1200.18536337 C3046.65369099 1200.18539348 3056.70917918 1200.18542373 3066.76466737 1200.18545464 C3101.83127381 1200.18556241 3136.89788026 1200.18566163 3171.96448671 1200.18574377 C3176.95565256 1200.18575573 3181.94681841 1200.18576848 3186.93798426 1200.1857814 C3288.3887201 1200.18603937 3389.83945585 1200.18501832 3491.29019165 1200.18244648 C3492.88214905 1200.18240618 3494.47410645 1200.18236589 3496.11430499 1200.18232437 C3569.15581107 1200.18046966 3642.19731715 1200.17820051 3715.23882321 1200.17559667 C3719.9370397 1200.17542923 3724.63525619 1200.17526221 3729.33347268 1200.17509531 C3738.71174511 1200.17476207 3748.09001754 1200.17442799 3757.46828997 1200.17409355 C3759.78582195 1200.17401093 3759.78582195 1200.17401093 3762.15017276 1200.17392665 C3777.71391132 1200.17337153 3793.27764988 1200.17281368 3808.84138843 1200.17224177 C3878.65353884 1200.16967685 3948.4656892 1200.16763959 4018.27783966 1200.16725707 C4021.38877088 1200.16723939 4024.4997021 1200.16722168 4027.61063332 1200.16720395 C4040.02393197 1200.16713421 4052.43723063 1200.1670693 4064.85052928 1200.16700647 C4145.96336603 1200.16659543 4227.07620263 1200.16605912 4308.18903923 1200.16051352 C4310.32645787 1200.1603675 4310.32645787 1200.1603675 4312.50705669 1200.16021852 C4343.58637036 1200.15808197 4374.665684 1200.15563923 4405.74499762 1200.15289382 C4416.7698996 1200.15192288 4427.79480158 1200.15097588 4438.81970356 1200.15004213 C4441.5534576 1200.14981056 4444.28721164 1200.1495779 4447.02096567 1200.14934415 C4489.97688655 1200.14568603 4532.93280673 1200.14508408 4575.88872772 1200.14622694 C4618.14958111 1200.14733661 4660.41043311 1200.1454118 4702.67128607 1200.13900878 C4708.44682746 1200.13813389 4714.22236886 1200.13729346 4719.99791026 1200.13647345 C4721.12867784 1200.13631151 4722.25944541 1200.13614956 4723.42447867 1200.13598271 C4741.32114462 1200.13351022 4759.21780878 1200.13438469 4777.11447469 1200.13665691 C4794.58412104 1200.13880659 4812.0537641 1200.13745578 4829.52340984 1200.13224037 C4839.73847393 1200.12929769 4849.95352923 1200.12912201 4860.16859308 1200.13294876 C4866.91525813 1200.13520804 4873.66191615 1200.13391518 4880.4085802 1200.12959406 C4884.23895124 1200.12724348 4888.06930454 1200.12651415 4891.89967499 1200.13013968 C4895.99383031 1200.13398207 4900.08794152 1200.13023679 4904.182096 1200.1256165 C4905.98233494 1200.12916118 4905.98233494 1200.12916118 4907.81894233 1200.13277746 C4908.89476564 1200.1302944 4909.97058895 1200.12781135 4911.07901296 1200.12525304 C4912.01259973 1200.12520379 4912.94618651 1200.12515455 4913.90806379 1200.12510381 C4915.9883044 1200.23290697 4915.9883044 1200.23290697 4917 1199 C4917.09930533 1197.01112506 4917.12799462 1195.01869583 4917.12939453 1193.02734375 C4917.13254669 1191.74931885 4917.13569885 1190.47129395 4917.13894653 1189.15454102 C4917.13715675 1187.74886033 4917.1351058 1186.34317995 4917.1328125 1184.9375 C4917.13348558 1183.50642887 4917.13445564 1182.07535785 4917.13571167 1180.64428711 C4917.13718844 1177.64142776 4917.13503476 1174.6385981 4917.13037109 1171.63574219 C4917.12467381 1167.77847429 4917.12795292 1163.92127596 4917.13394356 1160.06401062 C4917.13754974 1157.10786409 4917.13641032 1154.15173417 4917.13381577 1151.19558716 C4917.13314665 1149.77295931 4917.13397437 1148.35032997 4917.13629532 1146.92770386 C4917.13882274 1144.94268826 4917.13429042 1142.95766741 4917.12939453 1140.97265625 C4917.12820114 1139.27508179 4917.12820114 1139.27508179 4917.12698364 1137.54321289 C4917.28833982 1135.06468489 4917.28833982 1135.06468489 4916 1134 C4914.55005296 1133.89876232 4913.09522417 1133.86648624 4911.64175415 1133.86196899 C4910.22943764 1133.85378899 4910.22943764 1133.85378899 4908.78858948 1133.84544373 C4907.74669968 1133.8444014 4906.70480988 1133.84335907 4905.63134766 1133.84228516 C4904.54006058 1133.83720444 4903.4487735 1133.83212372 4902.32441711 1133.82688904 C4899.94211262 1133.81615253 4897.55979784 1133.80754535 4895.17747879 1133.80076981 C4891.39157098 1133.78899253 4887.60577786 1133.76953523 4883.81991577 1133.74765015 C4873.05055394 1133.68604713 4862.28120648 1133.63204935 4851.51171875 1133.59863281 C4844.92926867 1133.57811844 4838.34699349 1133.54205841 4831.76465988 1133.49787521 C4829.26840997 1133.48383073 4826.77212432 1133.47501928 4824.27583694 1133.47182083 C4792.52643295 1133.42689646 4765.82199411 1129.13643863 4741 1108 C4740.19304687 1107.39414063 4739.38609375 1106.78828125 4738.5546875 1106.1640625 C4720.20763335 1090.62236831 4710.46857584 1065.22579837 4708.20693771 1041.87870479 C4707.82083059 1036.50757923 4707.8628571 1031.13686286 4707.87250805 1025.75430298 C4707.87086422 1024.44375281 4707.86922038 1023.13320265 4707.86752674 1021.78293884 C4707.86310327 1018.15382668 4707.86484573 1014.52473998 4707.86760005 1010.89562714 C4707.86948079 1006.94384617 4707.86552184 1002.99207033 4707.86228687 999.04029083 C4707.8573999 992.11662243 4707.85613953 985.19296085 4707.85725212 978.26929092 C4707.85886383 967.97268444 4707.85469579 957.67608603 4707.84917164 947.37948118 C4707.84052298 931.11420608 4707.8351595 914.84893204 4707.83197013 898.58365501 C4707.82682354 872.74865306 4707.81135067 846.91366488 4707.79239365 821.07866973 C4707.78837228 815.57735015 4707.7844513 810.0760305 4707.78052729 804.57471085 C4707.77935331 802.92972158 4707.77935331 802.92972158 4707.77815561 801.2515002 C4707.77657003 799.02920576 4707.7749852 796.80691132 4707.77340112 794.58461687 C4707.77180984 792.3540813 4707.77021559 790.12354573 4707.76861839 787.89301017 C4707.74978967 761.5904583 4707.7327036 735.2879055 4707.71704102 708.98535156 C4707.7163521 707.83457192 4707.71566318 706.68379227 4707.71495338 705.49814051 C4707.69270579 668.2063053 4707.6808566 630.91447409 4707.67337446 593.62263331 C4707.66560153 555.26078365 4707.64451079 516.89896128 4707.60783185 478.53712795 C4707.60265861 473.11351756 4707.59765119 467.68990703 4707.59275246 462.26629639 C4707.5917855 461.19895592 4707.59081854 460.13161545 4707.58982228 459.03193133 C4707.5747097 441.88962562 4707.57378054 424.74734735 4707.57840959 407.60503681 C4707.58280435 390.35682888 4707.57282161 373.10867694 4707.54832252 355.86048543 C4707.53423525 345.62787099 4707.53113545 335.39539407 4707.54416505 325.16277748 C4707.55178817 318.30915834 4707.54470682 311.45565142 4707.52618354 304.60205347 C4707.51607055 300.7090123 4707.5118735 296.81624512 4707.52580877 292.92320943 C4707.68375182 245.04395626 4696.32119495 200.49620463 4667 162 C4666.34515625 161.13246094 4665.6903125 160.26492187 4665.015625 159.37109375 C4632.20101666 117.13245532 4584.2017665 89.77859542 4531.27249461 82.40649173 C4521.78104161 81.22751434 4512.31506283 80.8530853 4502.75861979 80.8743835 C4501.59034182 80.87295191 4500.42206384 80.87152032 4499.21838351 80.87004536 C4495.99490758 80.86709794 4492.77147006 80.86858044 4489.54799577 80.87198623 C4486.01617951 80.87459523 4482.48436753 80.87134634 4478.95255184 80.86887427 C4472.73624423 80.86532343 4466.51994528 80.86548122 4460.30363732 80.86806076 C4450.97056302 80.87191273 4441.63749596 80.86995451 4432.30442169 80.86689573 C4416.32505545 80.86182835 4400.34569224 80.86151945 4384.3663255 80.86375926 C4368.08217203 80.86602224 4351.79802071 80.86609201 4335.51386726 80.86352655 C4333.96574386 80.86328476 4333.96574386 80.86328476 4332.38634525 80.86303808 C4327.11675283 80.86220557 4321.84716042 80.86133871 4316.57756802 80.86046055 C4278.07134924 80.85412116 4239.56513149 80.85274857 4201.05891228 80.85387802 C4162.02111716 80.85500947 4122.983323 80.85397998 4083.94552803 80.85030556 C4081.45761506 80.85007357 4078.96970208 80.84984159 4076.48178911 80.84960964 C4066.45069565 80.84867012 4056.41960219 80.84771382 4046.38850873 80.84673845 C4018.11021708 80.84399287 3989.8319254 80.84161353 3961.55363369 80.83948648 C3960.25770032 80.83938893 3958.96176694 80.83929138 3957.62656286 80.83919087 C3883.89480979 80.83368345 3810.16305667 80.83338121 3736.43130343 80.83297001 C3725.15904073 80.83290677 3713.88677803 80.83284024 3702.61451532 80.83276946 C3699.78926307 80.83275177 3696.96401082 80.83273439 3694.13875856 80.83271734 C3630.75371446 80.83232969 3567.36867046 80.83015159 3503.98362641 80.82758708 C3489.84073962 80.82701553 3475.69785283 80.82646156 3461.55496603 80.82590645 C3460.15110994 80.82585133 3458.74725385 80.82579621 3457.30085666 80.82573942 C3448.77924572 80.82540492 3440.25763478 80.82507115 3431.73602384 80.82473785 C3427.4671943 80.82457077 3423.19836475 80.82440326 3418.9295352 80.82423572 C3352.55479452 80.82163375 3286.18005382 80.81940348 3219.80531311 80.81755352 C3217.63592698 80.81749296 3217.63592698 80.81749296 3215.42271487 80.81743119 C3123.25147494 80.81486777 3031.08023508 80.81396872 2938.90899513 80.81423152 C2934.3761126 80.81424427 2929.84323008 80.81425624 2925.31034756 80.81426793 C2893.46443208 80.81435027 2861.6185166 80.81445298 2829.77260112 80.81456081 C2820.64154057 80.81459158 2811.51048001 80.81462164 2802.37941945 80.81465162 C2794.76291949 80.81467672 2787.14641953 80.81470251 2779.52991957 80.81472974 C2635.66604392 80.81524119 2491.80216884 80.81382281 2347.93829346 80.80438232 C2346.42361879 80.80428297 2344.90894412 80.80418361 2343.34837022 80.80408124 C2296.02277415 80.80096989 2248.69717809 80.7976034 2201.37158203 80.79418945 C2152.8124288 80.79068808 2104.25327556 80.78721763 2055.69412231 80.78392506 C2054.19898651 80.78382353 2052.7038507 80.783722 2051.16340775 80.7836174 C1957.53861584 80.77726902 1863.9138241 80.77334653 1770.28903198 80.77206707 C1768.84319769 80.77204704 1767.39736339 80.77202701 1765.90771593 80.77200638 C1702.41263119 80.77113109 1638.91754646 80.77081127 1575.42246172 80.77109727 C1549.8789101 80.77121155 1524.33535847 80.77126762 1498.79180684 80.77130059 C1494.5565177 80.77130699 1490.32122855 80.77131606 1486.0859394 80.77132574 C1421.28950093 80.77146226 1356.49306298 80.77011462 1291.69662476 80.76428056 C1290.29887964 80.76415489 1288.90113452 80.76402921 1287.46103349 80.76389973 C1264.97600779 80.76187066 1242.4909821 80.75972666 1220.00595642 80.75757293 C1156.18562131 80.7514649 1092.36528688 80.74641952 1028.54495144 80.7485441 C1027.25034679 80.74858681 1025.95574214 80.74862952 1024.62190704 80.74867353 C996.37975592 80.74962683 968.13760486 80.75114258 939.89545381 80.75321025 C928.63219603 80.75402658 917.36893825 80.75477021 906.10568047 80.75549126 C904.87704103 80.75557191 903.6484016 80.75565256 902.38253068 80.75573566 C863.39706291 80.75826042 824.41159895 80.75463943 785.42613185 80.74747344 C747.04488816 80.74044449 708.66364979 80.73947678 670.28240609 80.74736037 C665.02681145 80.74843903 659.7712168 80.7494479 654.51562214 80.75041493 C653.48672703 80.75060695 652.45783191 80.75079896 651.39775816 80.7509968 C635.16965767 80.75384327 618.94156602 80.75001522 602.71346695 80.74333433 C586.8389048 80.73693538 570.96435623 80.73762563 555.08979481 80.7459282 C545.8295796 80.75055943 536.56940397 80.74978676 527.3091917 80.74083416 C521.16760929 80.73544384 515.02605661 80.73735741 508.8844768 80.74510484 C505.41404603 80.74928262 501.94369328 80.7504968 498.47326714 80.74262508 C478.63204371 80.70670415 458.96804306 81.11080707 439.5625 85.625 Z " fill="#000000" transform="translate(0,0)"/>
<path d="M0 0 C0.80743923 -0.00235223 1.61487846 -0.00470446 2.44678554 -0.00712797 C5.15154048 -0.0137832 7.85624699 -0.0133608 10.56100941 -0.01294994 C12.52032745 -0.01625075 14.47964482 -0.01997678 16.43896133 -0.02409142 C21.82308533 -0.03409516 27.20719819 -0.03782561 32.59133017 -0.04048073 C38.39873802 -0.04438869 44.20613708 -0.05396678 50.01353931 -0.0626936 C64.03976227 -0.08244557 78.06598594 -0.09252326 92.09221932 -0.10142139 C98.70189108 -0.10580693 105.31156205 -0.1111731 111.92123318 -0.11641026 C133.90180481 -0.13342234 155.88237597 -0.14793999 177.86295319 -0.155159 C179.2839365 -0.15563375 180.70491981 -0.15610964 182.12590312 -0.15658666 C182.83055661 -0.15682303 183.5352101 -0.15705941 184.26121673 -0.15730295 C187.83110307 -0.1585041 191.40098941 -0.15971956 194.97087574 -0.16094494 C196.03354261 -0.16130516 196.03354261 -0.16130516 197.1176775 -0.16167267 C220.06648846 -0.16955856 243.01524761 -0.19297569 265.96403597 -0.22550088 C290.24910868 -0.25985685 314.5341511 -0.27951557 338.8192485 -0.28280324 C352.04817953 -0.28487184 365.27703766 -0.29366866 378.50594616 -0.31926441 C389.77552307 -0.3410191 401.04500538 -0.34899843 412.31460091 -0.33929763 C418.05883208 -0.33476659 423.80286825 -0.33656939 429.54707241 -0.35605907 C434.81857156 -0.37378942 440.08973489 -0.37261355 445.3612381 -0.35716178 C447.25572353 -0.35480059 449.15023284 -0.3590307 451.04468199 -0.37099043 C479.71155213 -0.54057347 507.15263479 6.87640954 528.03801441 27.39593983 C528.93133472 28.29957264 529.82465504 29.20320545 530.74504566 30.13422108 C531.94580738 31.31951405 531.94580738 31.31951405 533.17082691 32.52875233 C553.15019547 53.33628124 559.41570086 81.15747804 559.24625111 109.1669817 C559.25015647 110.99116837 559.25580671 112.81535198 559.26302201 114.63952857 C559.27761686 119.58972654 559.26769186 124.53960121 559.25328529 129.48978817 C559.24208759 134.85247178 559.25414684 140.21511324 559.26312733 145.57779408 C559.2770015 156.05776629 559.26954723 166.53761733 559.25445174 177.01758369 C559.23752288 189.23915944 559.24081048 201.4607056 559.24454582 213.68228946 C559.25041355 235.49645054 559.2362946 257.31055376 559.2115984 279.12469959 C559.18767201 300.26144039 559.180599 321.39810393 559.19109058 342.53485584 C559.20251472 365.59144597 559.20441206 388.64800043 559.18999249 411.70459014 C559.18846675 414.16566455 559.1869464 416.62673896 559.18543148 419.08781338 C559.18467367 420.29849415 559.18391585 421.50917491 559.18313507 422.75654298 C559.1784045 431.26327186 559.1802349 439.76998474 559.18449688 448.27671337 C559.18943703 458.64978526 559.18337893 469.02278428 559.16360258 479.39583953 C559.15377063 484.68204009 559.14858101 489.96813 559.15649509 495.25433636 C559.16360568 500.10323655 559.15662296 504.95191452 559.13889147 509.80078564 C559.13488163 511.54475447 559.13578772 513.28874392 559.14241033 515.03270479 C559.24333848 544.12452018 550.94232421 571.25004529 530.38811207 592.52777576 C508.72732165 613.70578482 482.4208907 621.6276484 452.78117847 621.515172 C450.78266743 621.51863395 448.7841583 621.52340211 446.78565311 621.52935374 C441.3258983 621.54181955 435.86630181 621.53571351 430.40654659 621.52639508 C424.50598193 621.51958678 418.60544385 621.53009464 412.70488453 621.53833485 C401.15830642 621.55165537 389.61178691 621.54880192 378.06520653 621.54009692 C368.67873719 621.53320724 359.29228339 621.53232713 349.90581226 621.53566837 C349.23781452 621.53589753 348.56981678 621.53612668 347.88157669 621.53636278 C345.16964995 621.53729687 342.45772323 621.53825207 339.74579652 621.53924207 C314.32916526 621.54840982 288.91256589 621.5401134 263.49593955 621.52395138 C240.93703075 621.5097156 218.37817277 621.51098952 195.81926441 621.52533436 C170.44778508 621.54141391 145.07633391 621.54775953 119.7048502 621.53849757 C116.99799316 621.53753548 114.29113611 621.53659695 111.58427906 621.53566837 C110.91782916 621.53543114 110.25137925 621.53519391 109.56473389 621.53494949 C99.52054108 621.53154353 89.47636953 621.5355347 79.43217945 621.54310703 C68.00633042 621.55153188 56.58054321 621.54922113 45.15470123 621.5332648 C39.32816829 621.52539541 33.5017383 621.52226784 27.67520618 621.53221226 C22.33587339 621.54118715 16.99673848 621.5361803 11.6574235 621.5202796 C9.73163182 621.51694362 7.80582325 621.51859904 5.88004255 621.52590697 C-24.22285888 621.63132938 -49.23990269 611.67976528 -70.78620434 590.66547108 C-76.67043863 584.45881298 -81.05759107 577.56032531 -85.25495434 570.13422108 C-85.72804028 569.31308826 -86.20112621 568.49195545 -86.68854809 567.64593983 C-89.36716349 562.68090505 -91.23266906 557.5553078 -92.94245434 552.19672108 C-93.24639111 551.24865589 -93.24639111 551.24865589 -93.55646801 550.28143787 C-97.11573837 538.57608608 -97.54594119 527.17451173 -97.52237988 515.03862476 C-97.5261207 513.20642156 -97.53072394 511.37421996 -97.53611052 509.54202086 C-97.54830268 504.52790596 -97.54808452 499.51385798 -97.54572177 494.49973166 C-97.54531264 489.08370515 -97.55636198 483.66769981 -97.56583691 478.25168324 C-97.58242753 467.64785807 -97.58794559 457.04405514 -97.58906166 446.44021808 C-97.59001313 437.8169661 -97.59412838 429.19372143 -97.60046291 420.57047176 C-97.61807068 396.10143948 -97.62730261 371.63242471 -97.62580197 347.16338604 C-97.62572205 345.84512147 -97.62564214 344.52685689 -97.62555981 343.16864491 C-97.62547805 341.84876344 -97.62539628 340.52888197 -97.62531205 339.16900409 C-97.62430932 317.78732917 -97.64363138 296.40572941 -97.67183654 275.02407425 C-97.70059429 253.04941293 -97.71437522 231.07478595 -97.71264899 209.10010535 C-97.71198605 196.7711499 -97.71743621 184.44226834 -97.73900509 172.11332989 C-97.75725501 161.61453501 -97.761533 151.11584751 -97.74798624 140.61704361 C-97.74147562 135.26593293 -97.74127027 129.91502804 -97.75869274 124.56393719 C-97.77451322 119.65413687 -97.77146895 114.74470397 -97.75412448 109.83491213 C-97.75107421 108.06978935 -97.75461144 106.30463853 -97.76584463 104.53954887 C-97.92281002 78.09942601 -90.12856127 53.09736839 -72.25495434 33.13422108 C-71.45573559 32.24090076 -70.65651684 31.34758045 -69.83307934 30.42718983 C-51.92252048 11.48332949 -26.15436897 -0.05235427 0 0 Z " fill="#000000" transform="translate(1428.2549543380737,511.86577892303467)"/>
<path d="M0 0 C0.80743923 -0.00235223 1.61487846 -0.00470446 2.44678554 -0.00712797 C5.15154048 -0.0137832 7.85624699 -0.0133608 10.56100941 -0.01294994 C12.52032745 -0.01625075 14.47964482 -0.01997678 16.43896133 -0.02409142 C21.82308533 -0.03409516 27.20719819 -0.03782561 32.59133017 -0.04048073 C38.39873802 -0.04438869 44.20613708 -0.05396678 50.01353931 -0.0626936 C64.03976227 -0.08244557 78.06598594 -0.09252326 92.09221932 -0.10142139 C98.70189108 -0.10580693 105.31156205 -0.1111731 111.92123318 -0.11641026 C133.90180481 -0.13342234 155.88237597 -0.14793999 177.86295319 -0.155159 C179.2839365 -0.15563375 180.70491981 -0.15610964 182.12590312 -0.15658666 C182.83055661 -0.15682303 183.5352101 -0.15705941 184.26121673 -0.15730295 C187.83110307 -0.1585041 191.40098941 -0.15971956 194.97087574 -0.16094494 C196.03354261 -0.16130516 196.03354261 -0.16130516 197.1176775 -0.16167267 C220.06648846 -0.16955856 243.01524761 -0.19297569 265.96403597 -0.22550088 C290.24910868 -0.25985685 314.5341511 -0.27951557 338.8192485 -0.28280324 C352.04817953 -0.28487184 365.27703766 -0.29366866 378.50594616 -0.31926441 C389.77552307 -0.3410191 401.04500538 -0.34899843 412.31460091 -0.33929763 C418.05883208 -0.33476659 423.80286825 -0.33656939 429.54707241 -0.35605907 C434.81857156 -0.37378942 440.08973489 -0.37261355 445.3612381 -0.35716178 C447.25572353 -0.35480059 449.15023284 -0.3590307 451.04468199 -0.37099043 C479.71155213 -0.54057347 507.15263479 6.87640954 528.03801441 27.39593983 C528.93133472 28.29957264 529.82465504 29.20320545 530.74504566 30.13422108 C531.94580738 31.31951405 531.94580738 31.31951405 533.17082691 32.52875233 C553.16482114 53.35151316 559.41533648 81.1847079 559.24625111 109.21167469 C559.25015642 111.04069885 559.25580662 112.86971995 559.26302201 114.69873405 C559.2776175 119.66226389 559.26769148 124.62547133 559.25328529 129.58899021 C559.24208804 134.96596971 559.25414666 140.34290717 559.26312733 145.71988392 C559.27700152 156.22759449 559.26954735 166.73518422 559.25445174 177.24288896 C559.23752411 189.49570088 559.2408103 201.74848327 559.24454582 214.00130329 C559.25041349 235.86985228 559.23629451 257.73834354 559.2115984 279.60687733 C559.18766911 300.79895661 559.18060014 321.99095883 559.19109058 343.1830492 C559.20251277 366.29859336 559.20441468 389.41410194 559.18999249 412.52964568 C559.18846675 414.99659999 559.18694639 417.4635543 559.18543148 419.93050861 C559.18467367 421.1440942 559.18391585 422.35767979 559.18313507 423.60804071 C559.17840323 432.13778171 559.18023578 440.66750676 559.18449688 449.19724751 C559.1894352 459.59669834 559.18338693 469.99607647 559.16360258 480.3955107 C559.15376573 485.69576416 559.14858641 490.99590717 559.15649509 496.29616642 C559.1635991 501.15673353 559.15663798 506.01707869 559.13889147 510.87761673 C559.13487747 512.62695133 559.13579494 514.37630646 559.14241033 516.12563315 C559.23382878 542.58333431 552.28243022 566.78523178 534.74504566 587.13422108 C533.95033863 588.14549061 533.95033863 588.14549061 533.13957691 589.17718983 C518.78492507 606.9344258 495.05177761 618.09369642 472.74504566 621.13422108 C466.11299879 621.66203132 459.44914294 621.54468512 452.80136585 621.52190113 C450.80499244 621.52608033 448.80862141 621.53156104 446.81225473 621.53822094 C441.35829648 621.55261738 435.90449009 621.548449 430.45052373 621.54105413 C424.55603311 621.53631035 418.66157478 621.54884302 412.76709461 621.55907154 C401.23154528 621.57624133 389.69605046 621.5771033 378.16049167 621.57185864 C368.78119831 621.56772549 359.40192041 621.56920287 350.02262783 621.5746069 C348.67265845 621.57536378 347.32268906 621.57611976 345.97271967 621.57687484 C343.93817063 621.5780201 341.90362158 621.57916998 339.86907254 621.58033408 C320.96562097 621.59103154 302.06217532 621.59577213 283.15872192 621.58786392 C282.09094478 621.58741816 282.09094478 621.58741816 281.00159638 621.5869634 C275.22170527 621.58451472 269.44181423 621.581903 263.66192319 621.57927926 C241.12311475 621.56917926 218.58438083 621.57753062 196.04558277 621.60077381 C170.6927501 621.62687701 145.33996228 621.63968615 119.98711568 621.63258606 C117.28104739 621.63187006 114.5749791 621.63119566 111.86891079 621.63054562 C111.20266315 621.63037581 110.53641552 621.630206 109.84997856 621.63003104 C99.81642467 621.62773326 89.78291433 621.63572302 79.74936962 621.64883709 C68.33127945 621.66357614 56.91329353 621.66417219 45.49520537 621.64676618 C39.67434581 621.63826783 33.85367235 621.63607829 28.03282261 621.65141773 C22.69513365 621.6653093 17.35778943 621.66044423 12.02012018 621.6411785 C10.0983118 621.63743188 8.17647551 621.64030143 6.2546921 621.65079015 C-8.74511748 621.72677743 -22.95419877 619.99080305 -36.87995434 614.00922108 C-37.91768993 613.5698119 -37.91768993 613.5698119 -38.97638988 613.12152576 C-63.68682155 602.18167434 -81.14272079 582.19522739 -91.36384106 557.48871326 C-93.6213577 551.52392134 -95.05364049 545.39106401 -96.25495434 539.13422108 C-96.4307788 538.23104692 -96.60660326 537.32787276 -96.78775573 536.39732969 C-97.3101873 532.74845121 -97.39578256 529.18278593 -97.3863821 525.50651455 C-97.38946105 524.37886339 -97.38946105 524.37886339 -97.39260221 523.2284314 C-97.3982607 520.70707206 -97.39681637 518.18576753 -97.39539623 515.66440296 C-97.39798054 513.83921571 -97.40099389 512.01402903 -97.40439963 510.18884313 C-97.41246544 505.17098744 -97.41425898 500.15314606 -97.4149971 495.13528466 C-97.41684844 489.7239867 -97.42439629 484.31269615 -97.43113232 478.90140247 C-97.44471423 467.06635118 -97.45074043 455.23130327 -97.45514297 443.39624548 C-97.45790622 436.0038839 -97.46214378 428.61152363 -97.46664715 421.21916294 C-97.47884073 400.74584059 -97.48913915 380.27251929 -97.49252224 359.79919338 C-97.49274181 358.48880971 -97.49296137 357.17842603 -97.49318759 355.82833376 C-97.49340587 354.5148328 -97.49362415 353.20133184 -97.49384904 351.84802783 C-97.4942925 349.18642688 -97.49473907 346.52482593 -97.49518871 343.86322498 C-97.4952981 343.20330429 -97.49540749 342.5433836 -97.4955202 341.86346531 C-97.499261 319.8163768 -97.51652566 297.76932688 -97.54054824 275.72225161 C-97.56428097 253.76358207 -97.576725 231.80492964 -97.57789016 209.84624708 C-97.57880595 197.52064587 -97.58453406 185.1950891 -97.60270977 172.86950016 C-97.61813683 162.37090932 -97.62321593 151.87237665 -97.61497167 141.37377663 C-97.61107411 136.02095459 -97.61195093 130.6682496 -97.62602901 125.31544209 C-97.63882184 120.40622089 -97.63752342 115.49720407 -97.6254383 110.58798294 C-97.62349056 108.82072718 -97.62651657 107.05345667 -97.63528267 105.28622158 C-97.77326378 75.56540489 -88.60085345 49.60446055 -67.62995434 28.00922108 C-49.95621717 10.50591532 -24.879613 -0.04980254 0 0 Z " fill="#000000" transform="translate(3076.2549543380737,511.86577892303467)"/>
</svg>
